<?xml version="1.0" standalone="no"?>
 <!DOCTYPE svg PUBLIC "-//W3C//DTD SVG 1.1//EN" 
 "http://www.w3.org/Graphics/SVG/1.1/DTD/svg11.dtd"> 
<svg xmlns="http://www.w3.org/2000/svg" version="1.1" 
    width="29.7002cm" height="21.0007cm" viewBox="0 0 116930 82680 ">
<title>SVG Picture created as CDJC-B_CrtYd.svg date 2021/10/07 11:50:53 </title>
  <desc>Picture generated by PCBNEW </desc>
<g style="fill:#000000; fill-opacity:1;stroke:#000000; stroke-opacity:1;
stroke-linecap:round; stroke-linejoin:round; "
 transform="translate(0 0) scale(1 1)">
</g>
<g style="fill:#000000; fill-opacity:0.0; 
stroke:#000000; stroke-width:-0.000393701; stroke-opacity:1; 
stroke-linecap:round; stroke-linejoin:round;">
</g>
<g style="fill:#000000; fill-opacity:0.0; 
stroke:#000000; stroke-width:39.3701; stroke-opacity:1; 
stroke-linecap:round; stroke-linejoin:round;">
</g>
<g style="fill:#000000; fill-opacity:0.0; 
stroke:#000000; stroke-width:59.0551; stroke-opacity:1; 
stroke-linecap:round; stroke-linejoin:round;">
<rect x="69685.9" y="65357.2" width="42519.7" height="12598.4" rx="0" />
</g>
<g style="fill:#000000; fill-opacity:0.0; 
stroke:#000000; stroke-width:39.3701; stroke-opacity:1; 
stroke-linecap:round; stroke-linejoin:round;">
</g>
<g style="fill:#000000; fill-opacity:0.0; 
stroke:#000000; stroke-width:59.0551; stroke-opacity:1; 
stroke-linecap:round; stroke-linejoin:round;">
<rect x="3937.01" y="3937.01" width="109056" height="74806" rx="0" />
</g>
<g style="fill:#000000; fill-opacity:0.0; 
stroke:#000000; stroke-width:39.3701; stroke-opacity:1; 
stroke-linecap:round; stroke-linejoin:round;">
</g>
<g style="fill:#000000; fill-opacity:0.0; 
stroke:#000000; stroke-width:59.0551; stroke-opacity:1; 
stroke-linecap:round; stroke-linejoin:round;">
<rect x="4724.41" y="4724.41" width="107481" height="73231.2" rx="0" />
</g>
<g style="fill:#000000; fill-opacity:0.0; 
stroke:#000000; stroke-width:39.3701; stroke-opacity:1; 
stroke-linecap:round; stroke-linejoin:round;">
</g>
<g style="fill:#000000; fill-opacity:0.0; 
stroke:#000000; stroke-width:59.0551; stroke-opacity:1; 
stroke-linecap:round; stroke-linejoin:round;">
<path d="M23622 4724
L23622 3937
" />
</g>
<g style="fill:#000000; fill-opacity:0.0; 
stroke:#000000; stroke-width:39.3701; stroke-opacity:1; 
stroke-linecap:round; stroke-linejoin:round;">
</g>
<g style="fill:#000000; fill-opacity:0.0; 
stroke:#000000; stroke-width:59.0551; stroke-opacity:1; 
stroke-linecap:round; stroke-linejoin:round;">
<path d="M43307 4724
L43307 3937
" />
</g>
<g style="fill:#000000; fill-opacity:0.0; 
stroke:#000000; stroke-width:39.3701; stroke-opacity:1; 
stroke-linecap:round; stroke-linejoin:round;">
</g>
<g style="fill:#000000; fill-opacity:0.0; 
stroke:#000000; stroke-width:59.0551; stroke-opacity:1; 
stroke-linecap:round; stroke-linejoin:round;">
<path d="M62992 4724
L62992 3937
" />
</g>
<g style="fill:#000000; fill-opacity:0.0; 
stroke:#000000; stroke-width:39.3701; stroke-opacity:1; 
stroke-linecap:round; stroke-linejoin:round;">
</g>
<g style="fill:#000000; fill-opacity:0.0; 
stroke:#000000; stroke-width:59.0551; stroke-opacity:1; 
stroke-linecap:round; stroke-linejoin:round;">
<path d="M82677 4724
L82677 3937
" />
</g>
<g style="fill:#000000; fill-opacity:0.0; 
stroke:#000000; stroke-width:39.3701; stroke-opacity:1; 
stroke-linecap:round; stroke-linejoin:round;">
</g>
<g style="fill:#000000; fill-opacity:0.0; 
stroke:#000000; stroke-width:59.0551; stroke-opacity:1; 
stroke-linecap:round; stroke-linejoin:round;">
<path d="M102362 4724
L102362 3937
" />
</g>
<g style="fill:#000000; fill-opacity:0.0; 
stroke:#000000; stroke-width:39.3701; stroke-opacity:1; 
stroke-linecap:round; stroke-linejoin:round;">
</g>
<g style="fill:#000000; fill-opacity:0.0; 
stroke:#000000; stroke-width:59.0551; stroke-opacity:1; 
stroke-linecap:round; stroke-linejoin:round;">
<text x="13779.5" y="4586.61"
textLength="546.494" font-size="682.415" lengthAdjust="spacingAndGlyphs"
text-anchor="start" opacity="0">1</text>
<path d="M14199 4562
L13906 4562
" />
<path d="M14052 4562
L14052 4050
L14004 4123
L13955 4172
L13906 4196
" />
</g>
<g style="fill:#000000; fill-opacity:0.0; 
stroke:#000000; stroke-width:39.3701; stroke-opacity:1; 
stroke-linecap:round; stroke-linejoin:round;">
</g>
<g style="fill:#000000; fill-opacity:0.0; 
stroke:#000000; stroke-width:59.0551; stroke-opacity:1; 
stroke-linecap:round; stroke-linejoin:round;">
<text x="33464.6" y="4586.61"
textLength="546.494" font-size="682.415" lengthAdjust="spacingAndGlyphs"
text-anchor="start" opacity="0">2</text>
<path d="M33591 4099
L33615 4074
L33664 4050
L33786 4050
L33835 4074
L33859 4099
L33884 4147
L33884 4196
L33859 4269
L33567 4562
L33884 4562
" />
</g>
<g style="fill:#000000; fill-opacity:0.0; 
stroke:#000000; stroke-width:39.3701; stroke-opacity:1; 
stroke-linecap:round; stroke-linejoin:round;">
</g>
<g style="fill:#000000; fill-opacity:0.0; 
stroke:#000000; stroke-width:59.0551; stroke-opacity:1; 
stroke-linecap:round; stroke-linejoin:round;">
<text x="53149.6" y="4586.61"
textLength="546.494" font-size="682.415" lengthAdjust="spacingAndGlyphs"
text-anchor="start" opacity="0">3</text>
<path d="M53252 4050
L53569 4050
L53398 4245
L53471 4245
L53520 4269
L53544 4294
L53569 4342
L53569 4464
L53544 4513
L53520 4537
L53471 4562
L53325 4562
L53276 4537
L53252 4513
" />
</g>
<g style="fill:#000000; fill-opacity:0.0; 
stroke:#000000; stroke-width:39.3701; stroke-opacity:1; 
stroke-linecap:round; stroke-linejoin:round;">
</g>
<g style="fill:#000000; fill-opacity:0.0; 
stroke:#000000; stroke-width:59.0551; stroke-opacity:1; 
stroke-linecap:round; stroke-linejoin:round;">
<text x="72834.6" y="4586.61"
textLength="546.494" font-size="682.415" lengthAdjust="spacingAndGlyphs"
text-anchor="start" opacity="0">4</text>
<path d="M73205 4221
L73205 4562
" />
<path d="M73083 4026
L72961 4391
L73278 4391
" />
</g>
<g style="fill:#000000; fill-opacity:0.0; 
stroke:#000000; stroke-width:39.3701; stroke-opacity:1; 
stroke-linecap:round; stroke-linejoin:round;">
</g>
<g style="fill:#000000; fill-opacity:0.0; 
stroke:#000000; stroke-width:59.0551; stroke-opacity:1; 
stroke-linecap:round; stroke-linejoin:round;">
<text x="92519.7" y="4586.61"
textLength="546.494" font-size="682.415" lengthAdjust="spacingAndGlyphs"
text-anchor="start" opacity="0">5</text>
<path d="M92914 4050
L92671 4050
L92646 4294
L92671 4269
L92719 4245
L92841 4245
L92890 4269
L92914 4294
L92939 4342
L92939 4464
L92914 4513
L92890 4537
L92841 4562
L92719 4562
L92671 4537
L92646 4513
" />
</g>
<g style="fill:#000000; fill-opacity:0.0; 
stroke:#000000; stroke-width:39.3701; stroke-opacity:1; 
stroke-linecap:round; stroke-linejoin:round;">
</g>
<g style="fill:#000000; fill-opacity:0.0; 
stroke:#000000; stroke-width:59.0551; stroke-opacity:1; 
stroke-linecap:round; stroke-linejoin:round;">
<text x="112205" y="4586.61"
textLength="546.494" font-size="682.415" lengthAdjust="spacingAndGlyphs"
text-anchor="start" opacity="0">6</text>
<path d="M112575 4050
L112477 4050
L112429 4074
L112404 4099
L112356 4172
L112331 4269
L112331 4464
L112356 4513
L112380 4537
L112429 4562
L112526 4562
L112575 4537
L112599 4513
L112624 4464
L112624 4342
L112599 4294
L112575 4269
L112526 4245
L112429 4245
L112380 4269
L112356 4294
L112331 4342
" />
</g>
<g style="fill:#000000; fill-opacity:0.0; 
stroke:#000000; stroke-width:39.3701; stroke-opacity:1; 
stroke-linecap:round; stroke-linejoin:round;">
</g>
<g style="fill:#000000; fill-opacity:0.0; 
stroke:#000000; stroke-width:59.0551; stroke-opacity:1; 
stroke-linecap:round; stroke-linejoin:round;">
<path d="M23622 77955
L23622 78742
" />
</g>
<g style="fill:#000000; fill-opacity:0.0; 
stroke:#000000; stroke-width:39.3701; stroke-opacity:1; 
stroke-linecap:round; stroke-linejoin:round;">
</g>
<g style="fill:#000000; fill-opacity:0.0; 
stroke:#000000; stroke-width:59.0551; stroke-opacity:1; 
stroke-linecap:round; stroke-linejoin:round;">
<path d="M43307 77955
L43307 78742
" />
</g>
<g style="fill:#000000; fill-opacity:0.0; 
stroke:#000000; stroke-width:39.3701; stroke-opacity:1; 
stroke-linecap:round; stroke-linejoin:round;">
</g>
<g style="fill:#000000; fill-opacity:0.0; 
stroke:#000000; stroke-width:59.0551; stroke-opacity:1; 
stroke-linecap:round; stroke-linejoin:round;">
<path d="M62992 77955
L62992 78742
" />
</g>
<g style="fill:#000000; fill-opacity:0.0; 
stroke:#000000; stroke-width:39.3701; stroke-opacity:1; 
stroke-linecap:round; stroke-linejoin:round;">
</g>
<g style="fill:#000000; fill-opacity:0.0; 
stroke:#000000; stroke-width:59.0551; stroke-opacity:1; 
stroke-linecap:round; stroke-linejoin:round;">
<path d="M82677 77955
L82677 78742
" />
</g>
<g style="fill:#000000; fill-opacity:0.0; 
stroke:#000000; stroke-width:39.3701; stroke-opacity:1; 
stroke-linecap:round; stroke-linejoin:round;">
</g>
<g style="fill:#000000; fill-opacity:0.0; 
stroke:#000000; stroke-width:59.0551; stroke-opacity:1; 
stroke-linecap:round; stroke-linejoin:round;">
<path d="M102362 77955
L102362 78742
" />
</g>
<g style="fill:#000000; fill-opacity:0.0; 
stroke:#000000; stroke-width:39.3701; stroke-opacity:1; 
stroke-linecap:round; stroke-linejoin:round;">
</g>
<g style="fill:#000000; fill-opacity:0.0; 
stroke:#000000; stroke-width:59.0551; stroke-opacity:1; 
stroke-linecap:round; stroke-linejoin:round;">
<text x="13779.5" y="78605.2"
textLength="546.494" font-size="682.415" lengthAdjust="spacingAndGlyphs"
text-anchor="start" opacity="0">1</text>
<path d="M14199 78580
L13906 78580
" />
<path d="M14052 78580
L14052 78069
L14004 78142
L13955 78190
L13906 78215
" />
</g>
<g style="fill:#000000; fill-opacity:0.0; 
stroke:#000000; stroke-width:39.3701; stroke-opacity:1; 
stroke-linecap:round; stroke-linejoin:round;">
</g>
<g style="fill:#000000; fill-opacity:0.0; 
stroke:#000000; stroke-width:59.0551; stroke-opacity:1; 
stroke-linecap:round; stroke-linejoin:round;">
<text x="33464.6" y="78605.2"
textLength="546.494" font-size="682.415" lengthAdjust="spacingAndGlyphs"
text-anchor="start" opacity="0">2</text>
<path d="M33591 78117
L33615 78093
L33664 78069
L33786 78069
L33835 78093
L33859 78117
L33884 78166
L33884 78215
L33859 78288
L33567 78580
L33884 78580
" />
</g>
<g style="fill:#000000; fill-opacity:0.0; 
stroke:#000000; stroke-width:39.3701; stroke-opacity:1; 
stroke-linecap:round; stroke-linejoin:round;">
</g>
<g style="fill:#000000; fill-opacity:0.0; 
stroke:#000000; stroke-width:59.0551; stroke-opacity:1; 
stroke-linecap:round; stroke-linejoin:round;">
<text x="53149.6" y="78605.2"
textLength="546.494" font-size="682.415" lengthAdjust="spacingAndGlyphs"
text-anchor="start" opacity="0">3</text>
<path d="M53252 78069
L53569 78069
L53398 78263
L53471 78263
L53520 78288
L53544 78312
L53569 78361
L53569 78483
L53544 78532
L53520 78556
L53471 78580
L53325 78580
L53276 78556
L53252 78532
" />
</g>
<g style="fill:#000000; fill-opacity:0.0; 
stroke:#000000; stroke-width:39.3701; stroke-opacity:1; 
stroke-linecap:round; stroke-linejoin:round;">
</g>
<g style="fill:#000000; fill-opacity:0.0; 
stroke:#000000; stroke-width:59.0551; stroke-opacity:1; 
stroke-linecap:round; stroke-linejoin:round;">
<text x="72834.6" y="78605.2"
textLength="546.494" font-size="682.415" lengthAdjust="spacingAndGlyphs"
text-anchor="start" opacity="0">4</text>
<path d="M73205 78239
L73205 78580
" />
<path d="M73083 78044
L72961 78410
L73278 78410
" />
</g>
<g style="fill:#000000; fill-opacity:0.0; 
stroke:#000000; stroke-width:39.3701; stroke-opacity:1; 
stroke-linecap:round; stroke-linejoin:round;">
</g>
<g style="fill:#000000; fill-opacity:0.0; 
stroke:#000000; stroke-width:59.0551; stroke-opacity:1; 
stroke-linecap:round; stroke-linejoin:round;">
<text x="92519.7" y="78605.2"
textLength="546.494" font-size="682.415" lengthAdjust="spacingAndGlyphs"
text-anchor="start" opacity="0">5</text>
<path d="M92914 78069
L92671 78069
L92646 78312
L92671 78288
L92719 78263
L92841 78263
L92890 78288
L92914 78312
L92939 78361
L92939 78483
L92914 78532
L92890 78556
L92841 78580
L92719 78580
L92671 78556
L92646 78532
" />
</g>
<g style="fill:#000000; fill-opacity:0.0; 
stroke:#000000; stroke-width:39.3701; stroke-opacity:1; 
stroke-linecap:round; stroke-linejoin:round;">
</g>
<g style="fill:#000000; fill-opacity:0.0; 
stroke:#000000; stroke-width:59.0551; stroke-opacity:1; 
stroke-linecap:round; stroke-linejoin:round;">
<text x="112205" y="78605.2"
textLength="546.494" font-size="682.415" lengthAdjust="spacingAndGlyphs"
text-anchor="start" opacity="0">6</text>
<path d="M112575 78069
L112477 78069
L112429 78093
L112404 78117
L112356 78190
L112331 78288
L112331 78483
L112356 78532
L112380 78556
L112429 78580
L112526 78580
L112575 78556
L112599 78532
L112624 78483
L112624 78361
L112599 78312
L112575 78288
L112526 78263
L112429 78263
L112380 78288
L112356 78312
L112331 78361
" />
</g>
<g style="fill:#000000; fill-opacity:0.0; 
stroke:#000000; stroke-width:39.3701; stroke-opacity:1; 
stroke-linecap:round; stroke-linejoin:round;">
</g>
<g style="fill:#000000; fill-opacity:0.0; 
stroke:#000000; stroke-width:59.0551; stroke-opacity:1; 
stroke-linecap:round; stroke-linejoin:round;">
<path d="M3937 23622
L4724 23622
" />
</g>
<g style="fill:#000000; fill-opacity:0.0; 
stroke:#000000; stroke-width:39.3701; stroke-opacity:1; 
stroke-linecap:round; stroke-linejoin:round;">
</g>
<g style="fill:#000000; fill-opacity:0.0; 
stroke:#000000; stroke-width:59.0551; stroke-opacity:1; 
stroke-linecap:round; stroke-linejoin:round;">
<path d="M3937 43307
L4724 43307
" />
</g>
<g style="fill:#000000; fill-opacity:0.0; 
stroke:#000000; stroke-width:39.3701; stroke-opacity:1; 
stroke-linecap:round; stroke-linejoin:round;">
</g>
<g style="fill:#000000; fill-opacity:0.0; 
stroke:#000000; stroke-width:59.0551; stroke-opacity:1; 
stroke-linecap:round; stroke-linejoin:round;">
<path d="M3937 62992
L4724 62992
" />
</g>
<g style="fill:#000000; fill-opacity:0.0; 
stroke:#000000; stroke-width:39.3701; stroke-opacity:1; 
stroke-linecap:round; stroke-linejoin:round;">
</g>
<g style="fill:#000000; fill-opacity:0.0; 
stroke:#000000; stroke-width:59.0551; stroke-opacity:1; 
stroke-linecap:round; stroke-linejoin:round;">
<text x="4330.71" y="14035.4"
textLength="497.75" font-size="682.415" lengthAdjust="spacingAndGlyphs"
text-anchor="middle" opacity="0">A</text>
<path d="M4208 13864
L4452 13864
" />
<path d="M4160 14011
L4330 13499
L4501 14011
" />
</g>
<g style="fill:#000000; fill-opacity:0.0; 
stroke:#000000; stroke-width:39.3701; stroke-opacity:1; 
stroke-linecap:round; stroke-linejoin:round;">
</g>
<g style="fill:#000000; fill-opacity:0.0; 
stroke:#000000; stroke-width:59.0551; stroke-opacity:1; 
stroke-linecap:round; stroke-linejoin:round;">
<text x="4330.71" y="33720.5"
textLength="570.866" font-size="682.415" lengthAdjust="spacingAndGlyphs"
text-anchor="middle" opacity="0">B</text>
<path d="M4367 33428
L4440 33452
L4464 33476
L4489 33525
L4489 33598
L4464 33647
L4440 33671
L4391 33696
L4196 33696
L4196 33184
L4367 33184
L4416 33208
L4440 33233
L4464 33281
L4464 33330
L4440 33379
L4416 33403
L4367 33428
L4196 33428
" />
</g>
<g style="fill:#000000; fill-opacity:0.0; 
stroke:#000000; stroke-width:39.3701; stroke-opacity:1; 
stroke-linecap:round; stroke-linejoin:round;">
</g>
<g style="fill:#000000; fill-opacity:0.0; 
stroke:#000000; stroke-width:59.0551; stroke-opacity:1; 
stroke-linecap:round; stroke-linejoin:round;">
<text x="4330.71" y="53405.5"
textLength="570.866" font-size="682.415" lengthAdjust="spacingAndGlyphs"
text-anchor="middle" opacity="0">C</text>
<path d="M4489 53332
L4464 53356
L4391 53381
L4342 53381
L4269 53356
L4221 53308
L4196 53259
L4172 53161
L4172 53088
L4196 52991
L4221 52942
L4269 52893
L4342 52869
L4391 52869
L4464 52893
L4489 52918
" />
</g>
<g style="fill:#000000; fill-opacity:0.0; 
stroke:#000000; stroke-width:39.3701; stroke-opacity:1; 
stroke-linecap:round; stroke-linejoin:round;">
</g>
<g style="fill:#000000; fill-opacity:0.0; 
stroke:#000000; stroke-width:59.0551; stroke-opacity:1; 
stroke-linecap:round; stroke-linejoin:round;">
<text x="4330.71" y="73090.6"
textLength="570.866" font-size="682.415" lengthAdjust="spacingAndGlyphs"
text-anchor="middle" opacity="0">D</text>
<path d="M4196 73066
L4196 72554
L4318 72554
L4391 72578
L4440 72627
L4464 72676
L4489 72773
L4489 72846
L4464 72944
L4440 72993
L4391 73041
L4318 73066
L4196 73066
" />
</g>
<g style="fill:#000000; fill-opacity:0.0; 
stroke:#000000; stroke-width:39.3701; stroke-opacity:1; 
stroke-linecap:round; stroke-linejoin:round;">
</g>
<g style="fill:#000000; fill-opacity:0.0; 
stroke:#000000; stroke-width:59.0551; stroke-opacity:1; 
stroke-linecap:round; stroke-linejoin:round;">
<path d="M112992 23622
L112205 23622
" />
</g>
<g style="fill:#000000; fill-opacity:0.0; 
stroke:#000000; stroke-width:39.3701; stroke-opacity:1; 
stroke-linecap:round; stroke-linejoin:round;">
</g>
<g style="fill:#000000; fill-opacity:0.0; 
stroke:#000000; stroke-width:59.0551; stroke-opacity:1; 
stroke-linecap:round; stroke-linejoin:round;">
<path d="M112992 43307
L112205 43307
" />
</g>
<g style="fill:#000000; fill-opacity:0.0; 
stroke:#000000; stroke-width:39.3701; stroke-opacity:1; 
stroke-linecap:round; stroke-linejoin:round;">
</g>
<g style="fill:#000000; fill-opacity:0.0; 
stroke:#000000; stroke-width:59.0551; stroke-opacity:1; 
stroke-linecap:round; stroke-linejoin:round;">
<path d="M112992 62992
L112205 62992
" />
</g>
<g style="fill:#000000; fill-opacity:0.0; 
stroke:#000000; stroke-width:39.3701; stroke-opacity:1; 
stroke-linecap:round; stroke-linejoin:round;">
</g>
<g style="fill:#000000; fill-opacity:0.0; 
stroke:#000000; stroke-width:59.0551; stroke-opacity:1; 
stroke-linecap:round; stroke-linejoin:round;">
<text x="112599" y="14035.4"
textLength="497.75" font-size="682.415" lengthAdjust="spacingAndGlyphs"
text-anchor="middle" opacity="0">A</text>
<path d="M112477 13864
L112721 13864
" />
<path d="M112428 14011
L112599 13499
L112769 14011
" />
</g>
<g style="fill:#000000; fill-opacity:0.0; 
stroke:#000000; stroke-width:39.3701; stroke-opacity:1; 
stroke-linecap:round; stroke-linejoin:round;">
</g>
<g style="fill:#000000; fill-opacity:0.0; 
stroke:#000000; stroke-width:59.0551; stroke-opacity:1; 
stroke-linecap:round; stroke-linejoin:round;">
<text x="112599" y="33720.5"
textLength="570.866" font-size="682.415" lengthAdjust="spacingAndGlyphs"
text-anchor="middle" opacity="0">B</text>
<path d="M112635 33428
L112708 33452
L112733 33476
L112757 33525
L112757 33598
L112733 33647
L112708 33671
L112660 33696
L112465 33696
L112465 33184
L112635 33184
L112684 33208
L112708 33233
L112733 33281
L112733 33330
L112708 33379
L112684 33403
L112635 33428
L112465 33428
" />
</g>
<g style="fill:#000000; fill-opacity:0.0; 
stroke:#000000; stroke-width:39.3701; stroke-opacity:1; 
stroke-linecap:round; stroke-linejoin:round;">
</g>
<g style="fill:#000000; fill-opacity:0.0; 
stroke:#000000; stroke-width:59.0551; stroke-opacity:1; 
stroke-linecap:round; stroke-linejoin:round;">
<text x="112599" y="53405.5"
textLength="570.866" font-size="682.415" lengthAdjust="spacingAndGlyphs"
text-anchor="middle" opacity="0">C</text>
<path d="M112757 53332
L112733 53356
L112660 53381
L112611 53381
L112538 53356
L112489 53308
L112465 53259
L112440 53161
L112440 53088
L112465 52991
L112489 52942
L112538 52893
L112611 52869
L112660 52869
L112733 52893
L112757 52918
" />
</g>
<g style="fill:#000000; fill-opacity:0.0; 
stroke:#000000; stroke-width:39.3701; stroke-opacity:1; 
stroke-linecap:round; stroke-linejoin:round;">
</g>
<g style="fill:#000000; fill-opacity:0.0; 
stroke:#000000; stroke-width:59.0551; stroke-opacity:1; 
stroke-linecap:round; stroke-linejoin:round;">
<text x="112599" y="73090.6"
textLength="570.866" font-size="682.415" lengthAdjust="spacingAndGlyphs"
text-anchor="middle" opacity="0">D</text>
<path d="M112465 73066
L112465 72554
L112587 72554
L112660 72578
L112708 72627
L112733 72676
L112757 72773
L112757 72846
L112733 72944
L112708 72993
L112660 73041
L112587 73066
L112465 73066
" />
</g>
<g style="fill:#000000; fill-opacity:0.0; 
stroke:#000000; stroke-width:39.3701; stroke-opacity:1; 
stroke-linecap:round; stroke-linejoin:round;">
</g>
<g style="fill:#000000; fill-opacity:0.0; 
stroke:#000000; stroke-width:59.0551; stroke-opacity:1; 
stroke-linecap:round; stroke-linejoin:round;">
<text x="78741" y="76321.7"
textLength="8720.47" font-size="787.402" lengthAdjust="spacingAndGlyphs"
text-anchor="start" opacity="0">Date: 2021-10-07</text>
<path d="M78911 76293
L78911 75703
L79051 75703
L79136 75731
L79192 75787
L79220 75843
L79248 75956
L79248 76040
L79220 76153
L79192 76209
L79136 76265
L79051 76293
L78911 76293
" />
<path d="M79754 76293
L79754 75984
L79726 75928
L79670 75899
L79557 75899
L79501 75928
" />
<path d="M79754 76265
L79698 76293
L79557 76293
L79501 76265
L79473 76209
L79473 76153
L79501 76096
L79557 76068
L79698 76068
L79754 76040
" />
<path d="M79951 75899
L80176 75899
" />
<path d="M80036 75703
L80036 76209
L80064 76265
L80120 76293
L80176 76293
" />
<path d="M80598 76265
L80542 76293
L80429 76293
L80373 76265
L80345 76209
L80345 75984
L80373 75928
L80429 75899
L80542 75899
L80598 75928
L80626 75984
L80626 76040
L80345 76096
" />
<path d="M80879 76237
L80907 76265
L80879 76293
L80851 76265
L80879 76237
L80879 76293
" />
<path d="M80879 75928
L80907 75956
L80879 75984
L80851 75956
L80879 75928
L80879 75984
" />
<path d="M81582 75759
L81610 75731
L81667 75703
L81807 75703
L81863 75731
L81892 75759
L81920 75815
L81920 75871
L81892 75956
L81554 76293
L81920 76293
" />
<path d="M82285 75703
L82341 75703
L82398 75731
L82426 75759
L82454 75815
L82482 75928
L82482 76068
L82454 76181
L82426 76237
L82398 76265
L82341 76293
L82285 76293
L82229 76265
L82201 76237
L82173 76181
L82145 76068
L82145 75928
L82173 75815
L82201 75759
L82229 75731
L82285 75703
" />
<path d="M82707 75759
L82735 75731
L82791 75703
L82932 75703
L82988 75731
L83016 75759
L83045 75815
L83045 75871
L83016 75956
L82679 76293
L83045 76293
" />
<path d="M83607 76293
L83269 76293
" />
<path d="M83438 76293
L83438 75703
L83382 75787
L83326 75843
L83269 75871
" />
<path d="M83860 76068
L84310 76068
" />
<path d="M84901 76293
L84563 76293
" />
<path d="M84732 76293
L84732 75703
L84676 75787
L84619 75843
L84563 75871
" />
<path d="M85266 75703
L85322 75703
L85379 75731
L85407 75759
L85435 75815
L85463 75928
L85463 76068
L85435 76181
L85407 76237
L85379 76265
L85322 76293
L85266 76293
L85210 76265
L85182 76237
L85154 76181
L85126 76068
L85126 75928
L85154 75815
L85182 75759
L85210 75731
L85266 75703
" />
<path d="M85716 76068
L86166 76068
" />
<path d="M86560 75703
L86616 75703
L86672 75731
L86700 75759
L86728 75815
L86757 75928
L86757 76068
L86728 76181
L86700 76237
L86672 76265
L86616 76293
L86560 76293
L86503 76265
L86475 76237
L86447 76181
L86419 76068
L86419 75928
L86447 75815
L86475 75759
L86503 75731
L86560 75703
" />
<path d="M86953 75703
L87347 75703
L87094 76293
" />
</g>
<g style="fill:#000000; fill-opacity:0.0; 
stroke:#000000; stroke-width:39.3701; stroke-opacity:1; 
stroke-linecap:round; stroke-linejoin:round;">
</g>
<g style="fill:#000000; fill-opacity:0.0; 
stroke:#000000; stroke-width:59.0551; stroke-opacity:1; 
stroke-linecap:round; stroke-linejoin:round;">
<path d="M69685 76577
L112205 76577
" />
</g>
<g style="fill:#000000; fill-opacity:0.0; 
stroke:#000000; stroke-width:39.3701; stroke-opacity:1; 
stroke-linecap:round; stroke-linejoin:round;">
</g>
<g style="fill:#000000; fill-opacity:0.0; 
stroke:#000000; stroke-width:59.0551; stroke-opacity:1; 
stroke-linecap:round; stroke-linejoin:round;">
<text x="70079.6" y="77424.1"
textLength="18675.5" font-size="787.402" lengthAdjust="spacingAndGlyphs"
text-anchor="start" opacity="0">KiCad E.D.A.  kicad 5.1.5+dfsg1-2build2</text>
<path d="M70249 77395
L70249 76805
" />
<path d="M70587 77395
L70334 77058
" />
<path d="M70587 76805
L70249 77142
" />
<path d="M70840 77395
L70840 77002
" />
<path d="M70840 76805
L70812 76833
L70840 76861
L70868 76833
L70840 76805
L70840 76861
" />
<path d="M71458 77339
L71430 77367
L71346 77395
L71290 77395
L71205 77367
L71149 77311
L71121 77255
L71093 77142
L71093 77058
L71121 76946
L71149 76889
L71205 76833
L71290 76805
L71346 76805
L71430 76833
L71458 76861
" />
<path d="M71965 77395
L71965 77086
L71937 77030
L71880 77002
L71768 77002
L71712 77030
" />
<path d="M71965 77367
L71908 77395
L71768 77395
L71712 77367
L71683 77311
L71683 77255
L71712 77199
L71768 77171
L71908 77171
L71965 77142
" />
<path d="M72499 77395
L72499 76805
" />
<path d="M72499 77367
L72443 77395
L72330 77395
L72274 77367
L72246 77339
L72218 77283
L72218 77114
L72246 77058
L72274 77030
L72330 77002
L72443 77002
L72499 77030
" />
<path d="M73230 77086
L73427 77086
" />
<path d="M73511 77395
L73230 77395
L73230 76805
L73511 76805
" />
<path d="M73764 77339
L73793 77367
L73764 77395
L73736 77367
L73764 77339
L73764 77395
" />
<path d="M74046 77395
L74046 76805
L74186 76805
L74271 76833
L74327 76889
L74355 76946
L74383 77058
L74383 77142
L74355 77255
L74327 77311
L74271 77367
L74186 77395
L74046 77395
" />
<path d="M74636 77339
L74664 77367
L74636 77395
L74608 77367
L74636 77339
L74636 77395
" />
<path d="M74889 77227
L75171 77227
" />
<path d="M74833 77395
L75030 76805
L75227 77395
" />
<path d="M75424 77339
L75452 77367
L75424 77395
L75395 77367
L75424 77339
L75424 77395
" />
<path d="M76605 77395
L76605 76805
" />
<path d="M76661 77171
L76830 77395
" />
<path d="M76830 77002
L76605 77227
" />
<path d="M77083 77395
L77083 77002
" />
<path d="M77083 76805
L77055 76833
L77083 76861
L77111 76833
L77083 76805
L77083 76861
" />
<path d="M77617 77367
L77561 77395
L77448 77395
L77392 77367
L77364 77339
L77336 77283
L77336 77114
L77364 77058
L77392 77030
L77448 77002
L77561 77002
L77617 77030
" />
<path d="M78123 77395
L78123 77086
L78095 77030
L78039 77002
L77926 77002
L77870 77030
" />
<path d="M78123 77367
L78067 77395
L77926 77395
L77870 77367
L77842 77311
L77842 77255
L77870 77199
L77926 77171
L78067 77171
L78123 77142
" />
<path d="M78658 77395
L78658 76805
" />
<path d="M78658 77367
L78601 77395
L78489 77395
L78433 77367
L78404 77339
L78376 77283
L78376 77114
L78404 77058
L78433 77030
L78489 77002
L78601 77002
L78658 77030
" />
<path d="M79670 76805
L79389 76805
L79361 77086
L79389 77058
L79445 77030
L79586 77030
L79642 77058
L79670 77086
L79698 77142
L79698 77283
L79670 77339
L79642 77367
L79586 77395
L79445 77395
L79389 77367
L79361 77339
" />
<path d="M79951 77339
L79979 77367
L79951 77395
L79923 77367
L79951 77339
L79951 77395
" />
<path d="M80542 77395
L80204 77395
" />
<path d="M80373 77395
L80373 76805
L80317 76889
L80260 76946
L80204 76974
" />
<path d="M80795 77339
L80823 77367
L80795 77395
L80767 77367
L80795 77339
L80795 77395
" />
<path d="M81357 76805
L81076 76805
L81048 77086
L81076 77058
L81132 77030
L81273 77030
L81329 77058
L81357 77086
L81385 77142
L81385 77283
L81357 77339
L81329 77367
L81273 77395
L81132 77395
L81076 77367
L81048 77339
" />
<path d="M81638 77171
L82088 77171
" />
<path d="M81863 77395
L81863 76946
" />
<path d="M82623 77395
L82623 76805
" />
<path d="M82623 77367
L82566 77395
L82454 77395
L82398 77367
L82370 77339
L82341 77283
L82341 77114
L82370 77058
L82398 77030
L82454 77002
L82566 77002
L82623 77030
" />
<path d="M82820 77002
L83045 77002
" />
<path d="M82904 77395
L82904 76889
L82932 76833
L82988 76805
L83045 76805
" />
<path d="M83213 77367
L83269 77395
L83382 77395
L83438 77367
L83466 77311
L83466 77283
L83438 77227
L83382 77199
L83298 77199
L83241 77171
L83213 77114
L83213 77086
L83241 77030
L83298 77002
L83382 77002
L83438 77030
" />
<path d="M83973 77002
L83973 77480
L83944 77536
L83916 77564
L83860 77592
L83776 77592
L83719 77564
" />
<path d="M83973 77367
L83916 77395
L83804 77395
L83748 77367
L83719 77339
L83691 77283
L83691 77114
L83719 77058
L83748 77030
L83804 77002
L83916 77002
L83973 77030
" />
<path d="M84563 77395
L84226 77395
" />
<path d="M84394 77395
L84394 76805
L84338 76889
L84282 76946
L84226 76974
" />
<path d="M84816 77171
L85266 77171
" />
<path d="M85519 76861
L85547 76833
L85604 76805
L85744 76805
L85800 76833
L85829 76861
L85857 76917
L85857 76974
L85829 77058
L85491 77395
L85857 77395
" />
<path d="M86110 77395
L86110 76805
" />
<path d="M86110 77030
L86166 77002
L86278 77002
L86335 77030
L86363 77058
L86391 77114
L86391 77283
L86363 77339
L86335 77367
L86278 77395
L86166 77395
L86110 77367
" />
<path d="M86897 77002
L86897 77395
" />
<path d="M86644 77002
L86644 77311
L86672 77367
L86728 77395
L86813 77395
L86869 77367
L86897 77339
" />
<path d="M87178 77395
L87178 77002
" />
<path d="M87178 76805
L87150 76833
L87178 76861
L87206 76833
L87178 76805
L87178 76861
" />
<path d="M87544 77395
L87488 77367
L87460 77311
L87460 76805
" />
<path d="M88022 77395
L88022 76805
" />
<path d="M88022 77367
L87966 77395
L87853 77395
L87797 77367
L87769 77339
L87741 77283
L87741 77114
L87769 77058
L87797 77030
L87853 77002
L87966 77002
L88022 77030
" />
<path d="M88275 76861
L88303 76833
L88359 76805
L88500 76805
L88556 76833
L88584 76861
L88613 76917
L88613 76974
L88584 77058
L88247 77395
L88613 77395
" />
</g>
<g style="fill:#000000; fill-opacity:0.0; 
stroke:#000000; stroke-width:39.3701; stroke-opacity:1; 
stroke-linecap:round; stroke-linejoin:round;">
</g>
<g style="fill:#000000; fill-opacity:0.0; 
stroke:#000000; stroke-width:59.0551; stroke-opacity:1; 
stroke-linecap:round; stroke-linejoin:round;">
<path d="M69685 75396
L112205 75396
" />
</g>
<g style="fill:#000000; fill-opacity:0.0; 
stroke:#000000; stroke-width:39.3701; stroke-opacity:1; 
stroke-linecap:round; stroke-linejoin:round;">
</g>
<g style="fill:#000000; fill-opacity:0.0; 
stroke:#000000; stroke-width:118.11; stroke-opacity:1; 
stroke-linecap:round; stroke-linejoin:round;">
<text x="103544" y="76321.7"
textLength="2899.33" font-size="787.402" lengthAdjust="spacingAndGlyphs"
text-anchor="start" opacity="0">Rev: 1</text>
<path d="M104099 76293
L103902 76012
" />
<path d="M103761 76293
L103761 75703
L103986 75703
L104042 75731
L104070 75759
L104099 75815
L104099 75899
L104070 75956
L104042 75984
L103986 76012
L103761 76012
" />
<path d="M104577 76265
L104520 76293
L104408 76293
L104352 76265
L104323 76209
L104323 75984
L104352 75928
L104408 75899
L104520 75899
L104577 75928
L104605 75984
L104605 76040
L104323 76096
" />
<path d="M104802 75899
L104942 76293
L105083 75899
" />
<path d="M105308 76237
L105336 76265
L105308 76293
L105280 76265
L105308 76237
L105308 76293
" />
<path d="M105308 75928
L105336 75956
L105308 75984
L105280 75956
L105308 75928
L105308 75984
" />
<path d="M106348 76293
L106011 76293
" />
<path d="M106180 76293
L106180 75703
L106123 75787
L106067 75843
L106011 75871
" />
</g>
<g style="fill:#000000; fill-opacity:0.0; 
stroke:#000000; stroke-width:39.3701; stroke-opacity:1; 
stroke-linecap:round; stroke-linejoin:round;">
</g>
<g style="fill:#000000; fill-opacity:0.0; 
stroke:#000000; stroke-width:59.0551; stroke-opacity:1; 
stroke-linecap:round; stroke-linejoin:round;">
<text x="70079.6" y="76321.7"
textLength="3781.21" font-size="787.402" lengthAdjust="spacingAndGlyphs"
text-anchor="start" opacity="0">Size: A4</text>
<path d="M70221 76265
L70305 76293
L70446 76293
L70502 76265
L70530 76237
L70559 76181
L70559 76124
L70530 76068
L70502 76040
L70446 76012
L70334 75984
L70277 75956
L70249 75928
L70221 75871
L70221 75815
L70249 75759
L70277 75731
L70334 75703
L70474 75703
L70559 75731
" />
<path d="M70812 76293
L70812 75899
" />
<path d="M70812 75703
L70784 75731
L70812 75759
L70840 75731
L70812 75703
L70812 75759
" />
<path d="M71037 75899
L71346 75899
L71037 76293
L71346 76293
" />
<path d="M71796 76265
L71740 76293
L71627 76293
L71571 76265
L71543 76209
L71543 75984
L71571 75928
L71627 75899
L71740 75899
L71796 75928
L71824 75984
L71824 76040
L71543 76096
" />
<path d="M72077 76237
L72105 76265
L72077 76293
L72049 76265
L72077 76237
L72077 76293
" />
<path d="M72077 75928
L72105 75956
L72077 75984
L72049 75956
L72077 75928
L72077 75984
" />
<path d="M72780 76124
L73061 76124
" />
<path d="M72724 76293
L72921 75703
L73118 76293
" />
<path d="M73568 75899
L73568 76293
" />
<path d="M73427 75674
L73286 76096
L73652 76096
" />
</g>
<g style="fill:#000000; fill-opacity:0.0; 
stroke:#000000; stroke-width:39.3701; stroke-opacity:1; 
stroke-linecap:round; stroke-linejoin:round;">
</g>
<g style="fill:#000000; fill-opacity:0.0; 
stroke:#000000; stroke-width:59.0551; stroke-opacity:1; 
stroke-linecap:round; stroke-linejoin:round;">
<text x="103544" y="77424.1"
textLength="3349.27" font-size="787.402" lengthAdjust="spacingAndGlyphs"
text-anchor="start" opacity="0">Id: 1/1</text>
<path d="M103714 77395
L103714 76805
" />
<path d="M104248 77395
L104248 76805
" />
<path d="M104248 77367
L104192 77395
L104079 77395
L104023 77367
L103995 77339
L103967 77283
L103967 77114
L103995 77058
L104023 77030
L104079 77002
L104192 77002
L104248 77030
" />
<path d="M104529 77339
L104557 77367
L104529 77395
L104501 77367
L104529 77339
L104529 77395
" />
<path d="M104529 77030
L104557 77058
L104529 77086
L104501 77058
L104529 77030
L104529 77086
" />
<path d="M105570 77395
L105232 77395
" />
<path d="M105401 77395
L105401 76805
L105345 76889
L105289 76946
L105232 76974
" />
<path d="M106245 76777
L105739 77536
" />
<path d="M106751 77395
L106413 77395
" />
<path d="M106582 77395
L106582 76805
L106526 76889
L106470 76946
L106413 76974
" />
</g>
<g style="fill:#000000; fill-opacity:0.0; 
stroke:#000000; stroke-width:39.3701; stroke-opacity:1; 
stroke-linecap:round; stroke-linejoin:round;">
</g>
<g style="fill:#000000; fill-opacity:0.0; 
stroke:#000000; stroke-width:59.0551; stroke-opacity:1; 
stroke-linecap:round; stroke-linejoin:round;">
<path d="M69685 73821
L112205 73821
" />
</g>
<g style="fill:#000000; fill-opacity:0.0; 
stroke:#000000; stroke-width:39.3701; stroke-opacity:1; 
stroke-linecap:round; stroke-linejoin:round;">
</g>
<g style="fill:#000000; fill-opacity:0.0; 
stroke:#000000; stroke-width:157.48; stroke-opacity:1; 
stroke-linecap:round; stroke-linejoin:round;">
<text x="70079.6" y="74924.1"
textLength="28973" font-size="1049.87" lengthAdjust="spacingAndGlyphs"
text-anchor="start" opacity="0">Title: Cascading 4017 Decada/Johnson Counter</text>
<path d="M70360 74099
L70810 74099
" />
<path d="M70486 74886
L70585 74099
" />
<path d="M70974 74886
L71039 74361
" />
<path d="M71072 74099
L71030 74136
L71063 74174
L71105 74136
L71072 74099
L71063 74174
" />
<path d="M71302 74361
L71602 74361
" />
<path d="M71447 74099
L71363 74774
L71391 74849
L71461 74886
L71536 74886
" />
<path d="M71911 74886
L71841 74849
L71813 74774
L71897 74099
" />
<path d="M72516 74849
L72436 74886
L72286 74886
L72216 74849
L72187 74774
L72225 74474
L72272 74399
L72352 74361
L72501 74361
L72572 74399
L72600 74474
L72591 74549
L72206 74624
" />
<path d="M72895 74811
L72928 74849
L72886 74886
L72853 74849
L72895 74811
L72886 74886
" />
<path d="M72947 74399
L72980 74436
L72937 74474
L72905 74436
L72947 74399
L72937 74474
" />
<path d="M74320 74811
L74278 74849
L74161 74886
L74086 74886
L73978 74849
L73912 74774
L73884 74699
L73865 74549
L73879 74436
L73936 74286
L73983 74211
L74067 74136
L74184 74099
L74259 74099
L74367 74136
L74400 74174
" />
<path d="M74986 74886
L75037 74474
L75009 74399
L74939 74361
L74789 74361
L74709 74399
" />
<path d="M74990 74849
L74911 74886
L74723 74886
L74653 74849
L74625 74774
L74634 74699
L74681 74624
L74761 74586
L74948 74586
L75028 74549
" />
<path d="M75328 74849
L75398 74886
L75548 74886
L75628 74849
L75675 74774
L75679 74736
L75651 74661
L75581 74624
L75468 74624
L75398 74586
L75370 74511
L75375 74474
L75421 74399
L75501 74361
L75614 74361
L75684 74399
" />
<path d="M76340 74849
L76260 74886
L76110 74886
L76040 74849
L76007 74811
L75979 74736
L76007 74511
L76054 74436
L76096 74399
L76176 74361
L76326 74361
L76396 74399
" />
<path d="M77010 74886
L77062 74474
L77034 74399
L76963 74361
L76813 74361
L76734 74399
" />
<path d="M77015 74849
L76935 74886
L76748 74886
L76678 74849
L76649 74774
L76659 74699
L76706 74624
L76785 74586
L76973 74586
L77052 74549
" />
<path d="M77723 74886
L77821 74099
" />
<path d="M77727 74849
L77648 74886
L77498 74886
L77427 74849
L77395 74811
L77367 74736
L77395 74511
L77441 74436
L77484 74399
L77563 74361
L77713 74361
L77784 74399
" />
<path d="M78098 74886
L78163 74361
" />
<path d="M78196 74099
L78154 74136
L78187 74174
L78229 74136
L78196 74099
L78187 74174
" />
<path d="M78538 74361
L78473 74886
" />
<path d="M78529 74436
L78571 74399
L78651 74361
L78763 74361
L78834 74399
L78862 74474
L78810 74886
" />
<path d="M79588 74361
L79508 74999
L79462 75074
L79419 75111
L79340 75149
L79227 75149
L79157 75111
" />
<path d="M79527 74849
L79447 74886
L79298 74886
L79227 74849
L79194 74811
L79166 74736
L79194 74511
L79241 74436
L79283 74399
L79363 74361
L79513 74361
L79583 74399
" />
<path d="M80900 74361
L80835 74886
" />
<path d="M80750 74061
L80493 74624
L80980 74624
" />
<path d="M81496 74099
L81571 74099
L81641 74136
L81674 74174
L81702 74249
L81721 74399
L81697 74586
L81641 74736
L81594 74811
L81552 74849
L81472 74886
L81397 74886
L81327 74849
L81294 74811
L81266 74736
L81247 74586
L81271 74399
L81327 74249
L81374 74174
L81416 74136
L81496 74099
" />
<path d="M82410 74886
L81960 74886
" />
<path d="M82185 74886
L82283 74099
L82194 74211
L82110 74286
L82030 74324
" />
<path d="M82771 74099
L83295 74099
L82860 74886
" />
<path d="M84097 74886
L84195 74099
L84383 74099
L84491 74136
L84556 74211
L84584 74286
L84603 74436
L84589 74549
L84533 74699
L84486 74774
L84402 74849
L84284 74886
L84097 74886
" />
<path d="M85189 74849
L85109 74886
L84959 74886
L84889 74849
L84861 74774
L84898 74474
L84945 74399
L85025 74361
L85175 74361
L85245 74399
L85273 74474
L85264 74549
L84880 74624
" />
<path d="M85901 74849
L85822 74886
L85672 74886
L85601 74849
L85569 74811
L85540 74736
L85569 74511
L85615 74436
L85658 74399
L85737 74361
L85887 74361
L85958 74399
" />
<path d="M86572 74886
L86623 74474
L86595 74399
L86525 74361
L86375 74361
L86295 74399
" />
<path d="M86576 74849
L86497 74886
L86309 74886
L86239 74849
L86211 74774
L86220 74699
L86267 74624
L86347 74586
L86534 74586
L86614 74549
" />
<path d="M87284 74886
L87382 74099
" />
<path d="M87289 74849
L87209 74886
L87059 74886
L86989 74849
L86956 74811
L86928 74736
L86956 74511
L87003 74436
L87045 74399
L87125 74361
L87275 74361
L87345 74399
" />
<path d="M87996 74886
L88048 74474
L88020 74399
L87950 74361
L87800 74361
L87720 74399
" />
<path d="M88001 74849
L87921 74886
L87734 74886
L87664 74849
L87636 74774
L87645 74699
L87692 74624
L87771 74586
L87959 74586
L88039 74549
" />
<path d="M89037 74061
L88235 75074
" />
<path d="M89520 74099
L89449 74661
L89398 74774
L89313 74849
L89196 74886
L89121 74886
" />
<path d="M89909 74886
L89838 74849
L89806 74811
L89777 74736
L89806 74511
L89852 74436
L89895 74399
L89974 74361
L90087 74361
L90157 74399
L90190 74436
L90218 74511
L90190 74736
L90143 74811
L90101 74849
L90021 74886
L89909 74886
" />
<path d="M90509 74886
L90607 74099
" />
<path d="M90846 74886
L90898 74474
L90870 74399
L90799 74361
L90687 74361
L90607 74399
L90565 74436
" />
<path d="M91287 74361
L91221 74886
" />
<path d="M91277 74436
L91319 74399
L91399 74361
L91512 74361
L91582 74399
L91610 74474
L91558 74886
" />
<path d="M91901 74849
L91971 74886
L92121 74886
L92201 74849
L92247 74774
L92252 74736
L92224 74661
L92154 74624
L92041 74624
L91971 74586
L91943 74511
L91947 74474
L91994 74399
L92074 74361
L92187 74361
L92257 74399
" />
<path d="M92683 74886
L92613 74849
L92580 74811
L92552 74736
L92580 74511
L92627 74436
L92669 74399
L92749 74361
L92861 74361
L92932 74399
L92965 74436
L92993 74511
L92965 74736
L92918 74811
L92876 74849
L92796 74886
L92683 74886
" />
<path d="M93349 74361
L93283 74886
" />
<path d="M93340 74436
L93382 74399
L93461 74361
L93574 74361
L93644 74399
L93672 74474
L93621 74886
" />
<path d="M95055 74811
L95013 74849
L94896 74886
L94821 74886
L94713 74849
L94647 74774
L94619 74699
L94600 74549
L94614 74436
L94671 74286
L94717 74211
L94802 74136
L94919 74099
L94994 74099
L95102 74136
L95135 74174
" />
<path d="M95495 74886
L95425 74849
L95392 74811
L95364 74736
L95392 74511
L95439 74436
L95481 74399
L95561 74361
L95674 74361
L95744 74399
L95777 74436
L95805 74511
L95777 74736
L95730 74811
L95688 74849
L95608 74886
L95495 74886
" />
<path d="M96498 74361
L96433 74886
" />
<path d="M96161 74361
L96109 74774
L96138 74849
L96208 74886
L96320 74886
L96400 74849
L96442 74811
" />
<path d="M96873 74361
L96808 74886
" />
<path d="M96864 74436
L96906 74399
L96986 74361
L97098 74361
L97169 74399
L97197 74474
L97145 74886
" />
<path d="M97473 74361
L97773 74361
" />
<path d="M97619 74099
L97534 74774
L97562 74849
L97633 74886
L97708 74886
" />
<path d="M98275 74849
L98195 74886
L98045 74886
L97975 74849
L97947 74774
L97984 74474
L98031 74399
L98111 74361
L98261 74361
L98331 74399
L98359 74474
L98350 74549
L97965 74624
" />
<path d="M98645 74886
L98711 74361
" />
<path d="M98692 74511
L98739 74436
L98781 74399
L98861 74361
L98936 74361
" />
</g>
<g style="fill:#000000; fill-opacity:0.0; 
stroke:#000000; stroke-width:39.3701; stroke-opacity:1; 
stroke-linecap:round; stroke-linejoin:round;">
</g>
<g style="fill:#000000; fill-opacity:0.0; 
stroke:#000000; stroke-width:59.0551; stroke-opacity:1; 
stroke-linecap:round; stroke-linejoin:round;">
<text x="70079.6" y="73408.3"
textLength="9400.45" font-size="787.402" lengthAdjust="spacingAndGlyphs"
text-anchor="start" opacity="0">File: CDJC.kicad_pcb</text>
<path d="M70446 73070
L70249 73070
" />
<path d="M70249 73380
L70249 72789
L70530 72789
" />
<path d="M70755 73380
L70755 72986
" />
<path d="M70755 72789
L70727 72817
L70755 72845
L70784 72817
L70755 72789
L70755 72845
" />
<path d="M71121 73380
L71065 73352
L71037 73295
L71037 72789
" />
<path d="M71571 73352
L71515 73380
L71402 73380
L71346 73352
L71318 73295
L71318 73070
L71346 73014
L71402 72986
L71515 72986
L71571 73014
L71599 73070
L71599 73127
L71318 73183
" />
<path d="M71852 73323
L71880 73352
L71852 73380
L71824 73352
L71852 73323
L71852 73380
" />
<path d="M71852 73014
L71880 73042
L71852 73070
L71824 73042
L71852 73014
L71852 73070
" />
<path d="M72921 73323
L72893 73352
L72808 73380
L72752 73380
L72668 73352
L72611 73295
L72583 73239
L72555 73127
L72555 73042
L72583 72930
L72611 72874
L72668 72817
L72752 72789
L72808 72789
L72893 72817
L72921 72845
" />
<path d="M73174 73380
L73174 72789
L73314 72789
L73399 72817
L73455 72874
L73483 72930
L73511 73042
L73511 73127
L73483 73239
L73455 73295
L73399 73352
L73314 73380
L73174 73380
" />
<path d="M73933 72789
L73933 73211
L73905 73295
L73849 73352
L73764 73380
L73708 73380
" />
<path d="M74552 73323
L74524 73352
L74439 73380
L74383 73380
L74299 73352
L74242 73295
L74214 73239
L74186 73127
L74186 73042
L74214 72930
L74242 72874
L74299 72817
L74383 72789
L74439 72789
L74524 72817
L74552 72845
" />
<path d="M74805 73323
L74833 73352
L74805 73380
L74777 73352
L74805 73323
L74805 73380
" />
<path d="M75086 73380
L75086 72789
" />
<path d="M75142 73155
L75311 73380
" />
<path d="M75311 72986
L75086 73211
" />
<path d="M75564 73380
L75564 72986
" />
<path d="M75564 72789
L75536 72817
L75564 72845
L75592 72817
L75564 72789
L75564 72845
" />
<path d="M76099 73352
L76042 73380
L75930 73380
L75874 73352
L75845 73323
L75817 73267
L75817 73099
L75845 73042
L75874 73014
L75930 72986
L76042 72986
L76099 73014
" />
<path d="M76605 73380
L76605 73070
L76577 73014
L76520 72986
L76408 72986
L76352 73014
" />
<path d="M76605 73352
L76548 73380
L76408 73380
L76352 73352
L76323 73295
L76323 73239
L76352 73183
L76408 73155
L76548 73155
L76605 73127
" />
<path d="M77139 73380
L77139 72789
" />
<path d="M77139 73352
L77083 73380
L76970 73380
L76914 73352
L76886 73323
L76858 73267
L76858 73099
L76886 73042
L76914 73014
L76970 72986
L77083 72986
L77139 73014
" />
<path d="M77280 73436
L77730 73436
" />
<path d="M77870 72986
L77870 73577
" />
<path d="M77870 73014
L77926 72986
L78039 72986
L78095 73014
L78123 73042
L78151 73099
L78151 73267
L78123 73323
L78095 73352
L78039 73380
L77926 73380
L77870 73352
" />
<path d="M78658 73352
L78601 73380
L78489 73380
L78433 73352
L78404 73323
L78376 73267
L78376 73099
L78404 73042
L78433 73014
L78489 72986
L78601 72986
L78658 73014
" />
<path d="M78911 73380
L78911 72789
" />
<path d="M78911 73014
L78967 72986
L79079 72986
L79136 73014
L79164 73042
L79192 73099
L79192 73267
L79164 73323
L79136 73352
L79079 73380
L78967 73380
L78911 73352
" />
</g>
<g style="fill:#000000; fill-opacity:0.0; 
stroke:#000000; stroke-width:39.3701; stroke-opacity:1; 
stroke-linecap:round; stroke-linejoin:round;">
</g>
<g style="fill:#000000; fill-opacity:0.0; 
stroke:#000000; stroke-width:59.0551; stroke-opacity:1; 
stroke-linecap:round; stroke-linejoin:round;">
<path d="M69685 71459
L112205 71459
" />
</g>
<g style="fill:#000000; fill-opacity:0.0; 
stroke:#000000; stroke-width:39.3701; stroke-opacity:1; 
stroke-linecap:round; stroke-linejoin:round;">
</g>
<g style="fill:#000000; fill-opacity:0.0; 
stroke:#000000; stroke-width:59.0551; stroke-opacity:1; 
stroke-linecap:round; stroke-linejoin:round;">
<text x="70079.6" y="72345.4"
textLength="3236.78" font-size="787.402" lengthAdjust="spacingAndGlyphs"
text-anchor="start" opacity="0">Sheet: </text>
<path d="M70221 72289
L70305 72317
L70446 72317
L70502 72289
L70530 72260
L70559 72204
L70559 72148
L70530 72092
L70502 72064
L70446 72036
L70334 72007
L70277 71979
L70249 71951
L70221 71895
L70221 71839
L70249 71782
L70277 71754
L70334 71726
L70474 71726
L70559 71754
" />
<path d="M70812 72317
L70812 71726
" />
<path d="M71065 72317
L71065 72007
L71037 71951
L70980 71923
L70896 71923
L70840 71951
L70812 71979
" />
<path d="M71571 72289
L71515 72317
L71402 72317
L71346 72289
L71318 72232
L71318 72007
L71346 71951
L71402 71923
L71515 71923
L71571 71951
L71599 72007
L71599 72064
L71318 72120
" />
<path d="M72077 72289
L72021 72317
L71908 72317
L71852 72289
L71824 72232
L71824 72007
L71852 71951
L71908 71923
L72021 71923
L72077 71951
L72105 72007
L72105 72064
L71824 72120
" />
<path d="M72274 71923
L72499 71923
" />
<path d="M72358 71726
L72358 72232
L72386 72289
L72443 72317
L72499 72317
" />
<path d="M72696 72260
L72724 72289
L72696 72317
L72668 72289
L72696 72260
L72696 72317
" />
<path d="M72696 71951
L72724 71979
L72696 72007
L72668 71979
L72696 71951
L72696 72007
" />
</g>
<g style="fill:#000000; fill-opacity:0.0; 
stroke:#000000; stroke-width:39.3701; stroke-opacity:1; 
stroke-linecap:round; stroke-linejoin:round;">
</g>
<g style="fill:#000000; fill-opacity:0.0; 
stroke:#000000; stroke-width:118.11; stroke-opacity:1; 
stroke-linecap:round; stroke-linejoin:round;">
<text x="70079.6" y="71164.3"
textLength="5767.72" font-size="787.402" lengthAdjust="spacingAndGlyphs"
text-anchor="start" opacity="0">Silicon 4007</text>
<path d="M70268 71108
L70353 71136
L70493 71136
L70550 71108
L70578 71079
L70606 71023
L70606 70967
L70578 70911
L70550 70883
L70493 70854
L70381 70826
L70325 70798
L70296 70770
L70268 70714
L70268 70658
L70296 70601
L70325 70573
L70381 70545
L70521 70545
L70606 70573
" />
<path d="M70859 71136
L70859 70742
" />
<path d="M70859 70545
L70831 70573
L70859 70601
L70887 70573
L70859 70545
L70859 70601
" />
<path d="M71224 71136
L71168 71108
L71140 71051
L71140 70545
" />
<path d="M71449 71136
L71449 70742
" />
<path d="M71449 70545
L71421 70573
L71449 70601
L71478 70573
L71449 70545
L71449 70601
" />
<path d="M71984 71108
L71928 71136
L71815 71136
L71759 71108
L71731 71079
L71703 71023
L71703 70854
L71731 70798
L71759 70770
L71815 70742
L71928 70742
L71984 70770
" />
<path d="M72321 71136
L72265 71108
L72237 71079
L72209 71023
L72209 70854
L72237 70798
L72265 70770
L72321 70742
L72406 70742
L72462 70770
L72490 70798
L72518 70854
L72518 71023
L72490 71079
L72462 71108
L72406 71136
L72321 71136
" />
<path d="M72771 70742
L72771 71136
" />
<path d="M72771 70798
L72799 70770
L72856 70742
L72940 70742
L72996 70770
L73024 70826
L73024 71136
" />
<path d="M74009 70742
L74009 71136
" />
<path d="M73868 70517
L73727 70939
L74093 70939
" />
<path d="M74430 70545
L74487 70545
L74543 70573
L74571 70601
L74599 70658
L74627 70770
L74627 70911
L74599 71023
L74571 71079
L74543 71108
L74487 71136
L74430 71136
L74374 71108
L74346 71079
L74318 71023
L74290 70911
L74290 70770
L74318 70658
L74346 70601
L74374 70573
L74430 70545
" />
<path d="M74993 70545
L75049 70545
L75105 70573
L75133 70601
L75162 70658
L75190 70770
L75190 70911
L75162 71023
L75133 71079
L75105 71108
L75049 71136
L74993 71136
L74937 71108
L74908 71079
L74880 71023
L74852 70911
L74852 70770
L74880 70658
L74908 70601
L74937 70573
L74993 70545
" />
<path d="M75386 70545
L75780 70545
L75527 71136
" />
</g>
<g style="fill:#000000; fill-opacity:0.0; 
stroke:#000000; stroke-width:39.3701; stroke-opacity:1; 
stroke-linecap:round; stroke-linejoin:round;">
</g>
<g style="fill:#000000; fill-opacity:0.0; 
stroke:#000000; stroke-width:59.0551; stroke-opacity:1; 
stroke-linecap:round; stroke-linejoin:round;">
<text x="70079.6" y="69983.1"
textLength="8814.96" font-size="787.402" lengthAdjust="spacingAndGlyphs"
text-anchor="start" opacity="0">Tec. Henrique Silva</text>
<path d="M70165 69364
L70502 69364
" />
<path d="M70334 69955
L70334 69364
" />
<path d="M70924 69926
L70868 69955
L70755 69955
L70699 69926
L70671 69870
L70671 69645
L70699 69589
L70755 69561
L70868 69561
L70924 69589
L70952 69645
L70952 69701
L70671 69758
" />
<path d="M71458 69926
L71402 69955
L71290 69955
L71233 69926
L71205 69898
L71177 69842
L71177 69673
L71205 69617
L71233 69589
L71290 69561
L71402 69561
L71458 69589
" />
<path d="M71712 69898
L71740 69926
L71712 69955
L71683 69926
L71712 69898
L71712 69955
" />
<path d="M72443 69955
L72443 69364
" />
<path d="M72443 69645
L72780 69645
" />
<path d="M72780 69955
L72780 69364
" />
<path d="M73286 69926
L73230 69955
L73118 69955
L73061 69926
L73033 69870
L73033 69645
L73061 69589
L73118 69561
L73230 69561
L73286 69589
L73314 69645
L73314 69701
L73033 69758
" />
<path d="M73568 69561
L73568 69955
" />
<path d="M73568 69617
L73596 69589
L73652 69561
L73736 69561
L73793 69589
L73821 69645
L73821 69955
" />
<path d="M74102 69955
L74102 69561
" />
<path d="M74102 69673
L74130 69617
L74158 69589
L74214 69561
L74271 69561
" />
<path d="M74467 69955
L74467 69561
" />
<path d="M74467 69364
L74439 69392
L74467 69420
L74496 69392
L74467 69364
L74467 69420
" />
<path d="M75002 69561
L75002 70151
" />
<path d="M75002 69926
L74946 69955
L74833 69955
L74777 69926
L74749 69898
L74721 69842
L74721 69673
L74749 69617
L74777 69589
L74833 69561
L74946 69561
L75002 69589
" />
<path d="M75536 69561
L75536 69955
" />
<path d="M75283 69561
L75283 69870
L75311 69926
L75367 69955
L75452 69955
L75508 69926
L75536 69898
" />
<path d="M76042 69926
L75986 69955
L75874 69955
L75817 69926
L75789 69870
L75789 69645
L75817 69589
L75874 69561
L75986 69561
L76042 69589
L76070 69645
L76070 69701
L75789 69758
" />
<path d="M76745 69926
L76830 69955
L76970 69955
L77027 69926
L77055 69898
L77083 69842
L77083 69786
L77055 69730
L77027 69701
L76970 69673
L76858 69645
L76802 69617
L76773 69589
L76745 69533
L76745 69476
L76773 69420
L76802 69392
L76858 69364
L76998 69364
L77083 69392
" />
<path d="M77336 69955
L77336 69561
" />
<path d="M77336 69364
L77308 69392
L77336 69420
L77364 69392
L77336 69364
L77336 69420
" />
<path d="M77701 69955
L77645 69926
L77617 69870
L77617 69364
" />
<path d="M77870 69561
L78011 69955
L78151 69561
" />
<path d="M78629 69955
L78629 69645
L78601 69589
L78545 69561
L78433 69561
L78376 69589
" />
<path d="M78629 69926
L78573 69955
L78433 69955
L78376 69926
L78348 69870
L78348 69814
L78376 69758
L78433 69730
L78573 69730
L78629 69701
" />
</g>
<g style="fill:#000000; fill-opacity:0.0; 
stroke:#000000; stroke-width:39.3701; stroke-opacity:1; 
stroke-linecap:round; stroke-linejoin:round;">
</g>
<g style="fill:#000000; fill-opacity:0.0; 
stroke:#000000; stroke-width:59.0551; stroke-opacity:1; 
stroke-linecap:round; stroke-linejoin:round;">
<path d="M77559 75396
L77559 76577
" />
</g>
<g style="fill:#000000; fill-opacity:0.0; 
stroke:#000000; stroke-width:39.3701; stroke-opacity:1; 
stroke-linecap:round; stroke-linejoin:round;">
</g>
<g style="fill:#000000; fill-opacity:0.0; 
stroke:#000000; stroke-width:59.0551; stroke-opacity:1; 
stroke-linecap:round; stroke-linejoin:round;">
<path d="M102756 75396
L102756 77955
" />
</g>
<g style="fill:#848484; fill-opacity:0.0; 
stroke:#848484; stroke-width:59.0551; stroke-opacity:1; 
stroke-linecap:round; stroke-linejoin:round;">
</g>
<g style="fill:#848484; fill-opacity:0.0; 
stroke:#848484; stroke-width:19.685; stroke-opacity:1; 
stroke-linecap:round; stroke-linejoin:round;">
<path d="M90866 42204
L90866 33799
" />
<path d="M95708 42204
L90866 42204
" />
<path d="M95708 33799
L95708 42204
" />
<path d="M90866 33799
L95708 33799
" />
<path d="M90866 50905
L90866 47500
" />
<path d="M95708 50905
L90866 50905
" />
<path d="M95708 47500
L95708 50905
" />
<path d="M90866 47500
L95708 47500
" />
<path d="M90866 56338
L90866 50944
" />
<path d="M95708 56338
L90866 56338
" />
<path d="M95708 50944
L95708 56338
" />
<path d="M90866 50944
L95708 50944
" />
<g >
</g>
<g >
</g>
<g >
</g>
<g >
</g>
<g >
</g>
<g >
</g>
<g >
</g>
<g >
</g>
<g >
</g>
<g >
</g>
<g >
</g>
<g >
</g>
<g >
</g>
<g >
</g>
<g >
</g>
<g >
</g>
<g >
</g>
<g >
</g>
<g >
</g>
<g >
</g>
<g >
</g>
<g >
</g>
<g >
</g>
<g >
</g>
<g >
</g>
<g >
</g>
<g >
</g>
<g >
</g>
<g >
</g>
<g >
</g>
<g >
</g>
<g >
</g>
<g >
</g>
<g >
</g>
<g >
</g>
<g >
</g>
<g >
</g>
<g >
</g>
<g >
</g>
<g >
</g>
<g >
</g>
<g >
</g>
<g >
</g>
<g >
</g>
<g >
</g>
<g >
</g>
<g >
</g>
<g >
</g>
<g >
</g>
<g >
</g>
<g >
</g>
<g >
</g>
<g >
</g>
<g >
</g>
<g >
</g>
<g >
</g>
</g>
<g style="fill:#000000; fill-opacity:0.0; 
stroke:#000000; stroke-width:19.685; stroke-opacity:1; 
stroke-linecap:round; stroke-linejoin:round;">
</g>
<g style="fill:#C2C200; fill-opacity:0.0; 
stroke:#C2C200; stroke-width:19.685; stroke-opacity:1; 
stroke-linecap:round; stroke-linejoin:round;">
<path d="M93248 18307
L56397 18307
" />
<circle cx="89921.3" cy="56692.9" r="590.551" /> 
<circle cx="89921.3" cy="56692.9" r="656.168" /> 
<path d="M88937 56692
L90905 56692
" />
<path d="M89921 55708
L89921 57677
" />
<circle cx="89921.3" cy="19291.3" r="590.551" /> 
<circle cx="89921.3" cy="19291.3" r="656.168" /> 
<path d="M88937 19291
L90905 19291
" />
<path d="M89921 18307
L89921 20275
" />
<path d="M93248 18307
L93248 19488
" />
<path d="M95767 28346
L95767 19488
" />
<path d="M93248 57677
L56397 57677
" />
<path d="M93248 57677
L93248 28346
" />
<path d="M95767 28346
L93248 28346
" />
<path d="M93248 19488
L95767 19488
" />
<path d="M56397 18307
L56397 57677
" />
<g >
</g>
<g >
</g>
<g >
</g>
<g >
</g>
<g >
</g>
<g >
</g>
<g >
</g>
<g >
</g>
<g >
</g>
<g >
</g>
<g >
</g>
<g >
</g>
<g >
</g>
<g >
</g>
<g >
</g>
<g >
</g>
<g >
</g>
<g >
</g>
<g >
</g>
<g >
</g>
<g >
</g>
<g >
</g>
<g >
</g>
<g >
</g>
<g >
</g>
<g >
</g>
<g >
</g>
<g >
</g>
<g >
</g>
<g >
</g>
<g >
</g>
<g >
</g>
<g >
</g>
<g >
</g>
<g >
</g>
<g >
</g>
<g >
</g>
<g >
</g>
<g >
</g>
<g >
</g>
<g >
</g>
<g >
</g>
<g >
</g>
<g >
</g>
<g >
</g>
<g >
</g>
<g >
</g>
<g >
</g>
<g >
</g>
<g >
</g>
<g >
</g>
<g >
</g>
<g >
</g>
<g >
</g>
<g >
</g>
<g >
</g>
</g> 
</svg>
